<svg version="1.1" xmlns="http://www.w3.org/2000/svg" xmlns:xlink="http://www.w3.org/1999/xlink" width="71.72492" height="65.01676" viewBox="0,0,71.72492,65.01676"><defs><linearGradient x1="239.61699" y1="156.79841" x2="239.61699" y2="173.58037" gradientUnits="userSpaceOnUse" id="color-1"><stop offset="0" stop-color="#ffffff"/><stop offset="1" stop-color="#ffffff" stop-opacity="0"/></linearGradient></defs><g transform="translate(-203.92701,-147.83426)"><g stroke-miterlimit="10"><path d="M205.17702,196.94642v-40.30494h69.09419v40.30494z" fill="#ffffff" stroke="#000000" stroke-width="2.5" stroke-linecap="butt"/><path d="M273.91134,158.80067l-33.4675,15.47422l-35.26683,-18.35315" fill="none" stroke="#000000" stroke-width="2.5" stroke-linecap="round"/><path d="M246.84594,173.91502c0,3.57747 -2.81955,6.47758 -6.29765,6.47758c-3.47809,0 -6.29765,-2.90011 -6.29765,-6.47758c0,-3.57747 2.81955,-6.47758 6.29765,-6.47758c3.47809,0 6.29765,2.90011 6.29765,6.47758z" fill="#ff0000" stroke="#000000" stroke-width="2.5" stroke-linecap="butt"/><text transform="translate(247.21165,198.27327) scale(1.16622,1.16622)" font-size="40" xml:space="preserve" fill="#05ff00" stroke="none" stroke-width="1" stroke-linecap="butt" font-family="Sans Serif" font-weight="normal" text-anchor="start"><tspan x="0" dy="0">+</tspan></text><path d="M210.16801,173.58037c-2.20914,0 -4,-1.79086 -4,-4v-8.78196c0,-2.20914 1.79086,-4 4,-4h58.89796c2.20914,0 4,1.79086 4,4v8.78196c0,2.20914 -1.79086,4 -4,4z" fill="url(#color-1)" stroke="none" stroke-width="0" stroke-linecap="butt"/></g></g></svg>