<svg version="1.1" xmlns="http://www.w3.org/2000/svg" xmlns:xlink="http://www.w3.org/1999/xlink" width="34.67" height="35" viewBox="0,0,34.67,35"><defs><linearGradient x1="240.72021" y1="164.45166" x2="240.72021" y2="183.32666" gradientUnits="userSpaceOnUse" id="color-1"><stop offset="0" stop-color="#ffffff"/><stop offset="1" stop-color="#ffffff" stop-opacity="0"/></linearGradient></defs><g transform="translate(-223.375,-162.875)"><g stroke-miterlimit="10"><path d="M257.045,180.375c0,9.1127 -7.31343,16.5 -16.335,16.5c-9.02157,0 -16.335,-7.3873 -16.335,-16.5c0,-9.1127 7.31343,-16.5 16.335,-16.5c9.02157,0 16.335,7.3873 16.335,16.5z" fill="#00d5ff" stroke="#000000" stroke-width="2"/><path d="M250.511,188.757c0,3.38993 -4.25509,6.138 -9.504,6.138c-5.24891,0 -9.504,-2.74808 -9.504,-6.138c0,-3.38992 4.25509,-6.138 9.504,-6.138c5.24891,0 9.504,2.74807 9.504,6.138z" fill="#ffffff" stroke="#000000" stroke-width="2"/><path d="M245.363,175.359c0,2.40575 -1.89115,4.356 -4.224,4.356c-2.33285,0 -4.224,-1.95025 -4.224,-4.356c0,-2.40575 1.89115,-4.356 4.224,-4.356c2.33285,0 4.224,1.95025 4.224,4.356z" fill="#ffffff" stroke="#000000" stroke-width="2"/><path d="M252.03271,173.88916c0,5.21219 -5.06478,9.4375 -11.3125,9.4375c-6.24772,0 -11.3125,-4.22531 -11.3125,-9.4375c0,-5.21219 5.06478,-9.4375 11.3125,-9.4375c6.24772,0 11.3125,4.22531 11.3125,9.4375z" fill="url(#color-1)" stroke="none" stroke-width="0"/></g></g></svg>